PathFileType	4	(X/Y/Z)	C:/Users/opensim2020/Desktop/walking_exp_matlab/subject06_cal10_run.trc																																																																																																																																																	
DataRate	CameraRate	NumFrames	NumMarkers	Units	OrigDataRate	OrigDataStartFrame	OrigNumFrames																																																																																																																																													
100	100	7	49	mm	100	257	118																																																																																																																																													
Frame#	Time	LKNE			RTIB			RFRM			RWRA			LTHI			RKNE			RELB			RFHD			LWRA			RUPA			STRN			RASI			CLAV			RSHO			LASI			RTHI			RBHD			LBHD			C7			RWRB			RFIN			RTOE			LSHO			RBAK			LTIB			RANK			LFIN			LANK			RHEE			T10			LHEE			LTOE			LFHD			LPSI			RPSI			LUPA			LELB			LFRM			LWRB			*39			*40			*41			*42			*43			*44			*45			*46			*47			*48		
		X1	Y1	Z1	X2	Y2	Z2	X3	Y3	Z3	X4	Y4	Z4	X5	Y5	Z5	X6	Y6	Z6	X7	Y7	Z7	X8	Y8	Z8	X9	Y9	Z9	X10	Y10	Z10	X11	Y11	Z11	X12	Y12	Z12	X13	Y13	Z13	X14	Y14	Z14	X15	Y15	Z15	X16	Y16	Z16	X17	Y17	Z17	X18	Y18	Z18	X19	Y19	Z19	X20	Y20	Z20	X21	Y21	Z21	X22	Y22	Z22	X23	Y23	Z23	X24	Y24	Z24	X25	Y25	Z25	X26	Y26	Z26	X27	Y27	Z27	X28	Y28	Z28	X29	Y29	Z29	X30	Y30	Z30	X31	Y31	Z31	X32	Y32	Z32	X33	Y33	Z33	X34	Y34	Z34	X35	Y35	Z35	X36	Y36	Z36	X37	Y37	Z37	X38	Y38	Z38	X39	Y39	Z39	X40	Y40	Z40	X41	Y41	Z41	X42	Y42	Z42	X43	Y43	Z43	X44	Y44	Z44	X45	Y45	Z45	X46	Y46	Z46	X47	Y47	Z47	X48	Y48	Z48	X49	Y49	Z49
																																																																																																																																																				
89	0.88	172.85532	521.4046	-1139.59302	411.57928	358.75308	-1479.0824	524.79907	1201.2926	-1116.54285	470.2897	1189.99902	-1248.05981	142.24486	674.66779	-1203.13074	431.19171	622.97443	-1464.35974	529.42865	1271.18896	-1039.59241	347.62183	1686.8197	-1369.2561	152.53821	1276.96924	-1405.43042	493.81433	1359.33276	-1099.20947	294.8096	1235.01599	-1378.46301	405.58994	1009.83136	-1323.51514	285.65408	1411.79688	-1340.17212	418.35016	1458.24695	-1251.2085	196.4846	978.16473	-1353.14697	461.9791	724.1264	-1392.75269	334.78317	1644.49915	-1235.53894	205.42183	1645.25952	-1245.67126	255.40393	1488.73669	-1235.91809	503.96808	1134.94629	-1232.18896	500.67184	1145.34216	-1315.14673	344.76349	104.34968	-1635.96704	122.66361	1456.63501	-1314.65515	299.78574	1334.27551	-1147.17859	163.62907	361.33948	-935.48248	352.4632	178.51372	-1491.24487	215.94206	1277.63354	-1474.57532	190.25592	252.87555	-802.27313	303.91898	170.10748	-1455.56836	254.57419	1170.54382	-1190.28198	223.90536	289.78421	-771.00177	240.13457	105.74396	-803.6792	215.6913	1692.90442	-1381.08728	191.31448	1029.04468	-1208.24646	356.10519	1039.88525	-1184.65234	12.58403	1290.76062	-1310.26135	-31.09135	1190.68042	-1297.96301	63.50016	1187.02112	-1385.75159	167.24654	1213.88879	-1433.3667							264.84793	1278.71179	1739.02405																					 
90	0.89	172.4052	521.37274	-1184.61658	410.25662	352.72537	-1523.54285	523.79321	1201.21252	-1154.19409	471.00217	1191.17725	-1286.58545	142.29257	675.23749	-1247.29187	429.70865	615.47009	-1497.85303	527.9104	1270.37378	-1076.53027	349.94644	1687.97229	-1407.69189	154.16563	1278.68201	-1444.16199	493.17065	1358.61267	-1136.14307	295.83701	1236.49158	-1418.08362	407.13495	1008.56641	-1364.16113	287.27393	1413.31287	-1378.63599	419.96255	1458.66992	-1288.60986	196.51463	980.10052	-1394.19885	462.35229	716.91351	-1428.69946	336.87302	1645.65625	-1274.03455	207.61771	1646.94434	-1284.22607	256.85501	1490.2843	-1274.72302	503.80402	1135.59705	-1270.64075	501.67133	1146.4021	-1353.62659	342.61935	103.86478	-1694.59656	123.58506	1457.80042	-1353.45764	300.26202	1333.27881	-1186.15515	163.01221	368.00009	-975.50549	353.17944	174.75363	-1546.99915	217.85991	1280.17834	-1513.02283	189.15508	263.60199	-838.22278	304.63568	165.60626	-1511.62732	256.05405	1170.43188	-1230.45618	224.52376	299.79523	-807.72198	234.49805	115.53699	-841.24554	218.04286	1694.53784	-1419.6095	193.33192	1029.62793	-1247.60645	357.91782	1038.54639	-1224.68311	13.74082	1291.1272	-1350.26221	-30.36078	1191.38696	-1338.38	65.2836	1188.44568	-1425.47522	169.29289	1215.83936	-1472.46082							267.40033	1317.24365	1740.5249																					 
91	0.9	171.21518	520.53033	-1230.41125	408.72476	346.64679	-1566.1936	523.05383	1199.5033	-1192.94897	472.06671	1190.8269	-1326.21436	142.12628	675.23621	-1291.69299	428.17734	607.62427	-1531.40918	526.87305	1268.12048	-1114.49451	351.90247	1688.18286	-1445.69067	155.70041	1278.43506	-1483.33093	492.71683	1356.80396	-1173.92627	296.65027	1237.09778	-1457.47559	407.97815	1006.90424	-1405.38574	288.75522	1413.84534	-1417.15698	421.64032	1458.31262	-1326.36194	196.18178	981.48401	-1435.11584	463.45313	709.48969	-1463.77087	338.63095	1645.78027	-1312.03699	209.72401	1647.54407	-1322.67871	258.46521	1491.06934	-1313.67871	503.64508	1134.60291	-1309.99292	502.83002	1145.8186	-1393.11389	339.23853	103.61407	-1749.51318	124.48158	1457.87744	-1392.54614	301.47644	1331.73242	-1224.92273	162.25607	373.90869	-1016.89673	353.5105	170.83345	-1599.13049	219.65927	1280.28894	-1552.0127	187.99078	273.10904	-876.45703	305.97162	160.27597	-1563.88611	257.05911	1168.8866	-1272.97461	225.30109	308.60046	-846.91455	228.2101	124.15364	-880.31317	220.51619	1695.20703	-1458.05444	195.21443	1029.19214	-1286.7301	360.18423	1037.03162	-1265.55701	14.59666	1290.4436	-1390.0791	-29.54778	1190.93286	-1378.09546	66.72575	1188.30798	-1465.01965	171.07849	1215.66199	-1511.71936							269.79324	1355.5415	1741.01331																					 
92	0.91	169.40561	518.58972	-1277.24561	408.25009	341.18735	-1607.79993	522.65314	1195.96899	-1232.63745	473.18216	1188.83569	-1366.53613	141.50082	674.35681	-1336.0293	426.74301	599.91235	-1565.52954	526.20276	1264.22266	-1153.80688	354.51035	1687.2074	-1483.9231	157.37354	1276.28955	-1522.82129	492.70319	1353.94751	-1212.4624	297.58337	1236.84509	-1496.78271	407.88187	1005.20898	-1447.04773	290.15894	1413.29517	-1455.61646	423.30569	1456.92065	-1364.51221	195.66838	982.1369	-1475.67871	463.52493	701.3418	-1497.70996	340.75375	1644.95239	-1350.13757	211.8148	1647.10474	-1360.93323	259.85724	1490.62952	-1352.3949	503.94592	1132.1228	-1350.65613	503.89539	1143.60352	-1433.54932	335.46835	102.47902	-1799.2959	125.4183	1456.89587	-1431.69531	303.24939	1329.70105	-1263.52979	161.80371	379.24466	-1059.46521	352.87137	166.21794	-1647.23901	221.39804	1277.9093	-1591.55579	186.83629	281.43057	-916.63556	307.1264	154.82022	-1611.84045	258.93317	1167.13416	-1308.01477	225.82417	315.85226	-887.44073	221.47046	131.70728	-922.17059	222.94414	1694.78186	-1496.34302	196.6911	1027.88391	-1326.03052	361.76971	1035.17029	-1306.41541	15.40911	1288.91028	-1429.48901	-28.60915	1189.56604	-1417.28467	68.04173	1186.78015	-1503.93762	172.46303	1213.54163	-1551.16541							272.21356	1393.70508	1740.39722																					 
93	0.92	167.75497	515.12476	-1325.11377	408.21048	335.98016	-1648.18787	522.83881	1190.9635	-1273.54602	474.46567	1185.43835	-1407.81812	140.65807	672.29822	-1380.25012	425.95432	592.43579	-1600.35864	525.99988	1258.79285	-1194.12854	356.8685	1685.28479	-1521.84045	159.05594	1272.49487	-1562.69165	493.20117	1349.71777	-1251.82471	299.20859	1235.7926	-1536.33496	407.09683	1003.59033	-1489.15002	291.47433	1411.62256	-1494.10571	425.03601	1454.44189	-1403.09058	195.1834	981.97137	-1515.93616	463.46365	693.80914	-1532.08289	343.17828	1643.12939	-1388.45801	213.896	1645.55579	-1399.09399	261.55035	1488.65845	-1390.77136	504.01089	1127.96887	-1391.96338	504.88678	1140.00903	-1475.07678	331.83701	99.59531	-1843.91284	126.3825	1455.01074	-1470.81006	305.34006	1327.11133	-1302.25708	161.34238	383.61029	-1103.26941	352.35294	160.99368	-1690.69861	222.9808	1273.11646	-1631.65027	185.88625	288.31778	-958.65143	307.3382	148.82181	-1655.10547	260.41553	1163.9906	-1348.15759	226.23897	321.44339	-929.25262	214.46783	138.26358	-966.73022	225.3103	1693.29224	-1534.45544	197.46904	1025.67224	-1365.72363	362.99786	1033.04785	-1347.87598	16.56942	1286.53528	-1468.40723	-27.31741	1187.33887	-1455.75391	69.18105	1183.68323	-1542.73328	173.67035	1209.4458	-1590.6394							274.48471	1431.69128	1738.72229																					 
94	0.93	166.06055	510.58453	-1373.90027	408.78409	329.85986	-1687.05591	523.44916	1184.43738	-1315.4082	475.78992	1180.7561	-1449.97107	139.78287	669.10529	-1424.77502	426.44989	584.6731	-1635.56055	525.85419	1251.54858	-1235.22559	358.74484	1682.33801	-1559.21094	160.80821	1267.052	-1602.68945	494.35184	1343.94177	-1291.79736	298.8403	1233.17285	-1574.9873	405.70554	1001.5769	-1531.00903	292.58334	1408.89868	-1532.6366	426.84543	1450.86133	-1442.09985	194.55139	980.73553	-1555.9021	463.51761	686.97369	-1567.48889	344.81631	1639.98865	-1425.86279	215.95883	1642.99146	-1437.04504	263.24612	1485.62073	-1428.8894	504.60449	1122.70813	-1434.46375	505.95743	1135.38818	-1517.50818	328.42874	93.19832	-1882.93872	127.45154	1452.20361	-1509.81812	307.56268	1323.86597	-1340.98169	160.6837	386.03644	-1149.30786	352.14154	154.58051	-1729.39551	224.33842	1266.09875	-1672.09363	185.10091	293.81293	-1002.44312	307.74863	142.4173	-1693.46753	261.4989	1160.27271	-1386.83911	226.71996	325.30643	-972.76343	207.09204	143.67195	-1013.63147	227.6761	1690.79382	-1572.36255	198.09175	1022.49213	-1405.36011	363.67499	1030.53247	-1389.3053	18.01289	1283.54761	-1506.69482	-25.94669	1184.33533	-1493.55322	70.2174	1179.14294	-1581.0957	174.57059	1203.59558	-1629.95264							276.88446	1469.47559	1735.96814																					 
95	0.94	164.51291	505.15488	-1423.43372	408.99942	322.49524	-1723.66858	524.56146	1176.64624	-1358.2041	477.24353	1174.8927	-1492.87256	138.85635	664.84406	-1469.6748	427.55331	576.48157	-1671.03357	527.26471	1243.07227	-1277.29468	361.09335	1678.37769	-1596.9187	162.43394	1259.96509	-1643.48853	496.28668	1336.64124	-1332.38672	299.13303	1229.70544	-1613.90796	404.5596	999.17645	-1572.64697	293.67838	1405.11353	-1571.02161	428.73859	1446.15369	-1481.34241	193.76924	978.35468	-1595.9679	463.97256	681.55743	-1604.67175	346.75244	1635.87537	-1463.52258	217.87074	1639.28406	-1474.81323	264.91718	1481.71973	-1467.0343	505.59445	1116.47375	-1478.04541	506.63199	1129.8457	-1560.92554	324.99066	83.16776	-1916.34277	128.72786	1448.42932	-1548.63721	309.87299	1319.87744	-1379.59985	159.814	386.33948	-1197.23621	351.88712	146.61261	-1763.7417	225.32489	1256.94226	-1712.88757	184.1496	297.68192	-1048.17212	308.4437	135.30064	-1727.05713	262.40723	1156.42676	-1425.45667	227.56705	327.57828	-1018.17914	199.12129	148.02802	-1062.50024	229.94151	1687.3866	-1610.02905	198.37338	1018.42957	-1445.37476	363.89005	1027.38989	-1430.26965	19.35012	1279.94373	-1544.50903	-23.8187	1180.41382	-1530.48315	71.13873	1173.21729	-1619.07031	175.08708	1195.79749	-1669.45032							279.45953	1507.10645	1732.04663																					 
